<svg id="svg" version="1.1" xmlns="http://www.w3.org/2000/svg" xmlns:xlink="http://www.w3.org/1999/xlink" width="400" height="400" viewBox="0, 0, 400,400"><g id="svgg"><path id="path0" d="M-0.000 46.926 L -0.000 93.851 2.250 93.716 C 48.320 90.935,79.226 46.727,66.056 2.450 L 65.327 0.000 32.663 0.000 L 0.000 0.000 -0.000 46.926 M82.081 0.350 C 84.188 7.178,85.441 18.627,84.998 27.000 C 82.609 72.147,47.853 106.987,2.614 109.585 C -0.079 109.740,-0.085 109.741,1.826 109.770 L 3.753 109.800 46.626 171.802 L 89.500 233.803 89.636 233.020 C 89.931 231.330,90.714 230.291,92.204 229.615 C 93.093 229.212,93.362 229.209,124.550 229.204 L 156.000 229.200 156.000 216.700 L 156.000 204.200 132.750 204.196 C 106.892 204.191,108.681 204.284,107.361 202.875 C 106.238 201.678,106.200 201.397,106.200 194.214 L 106.200 187.615 99.317 187.557 L 92.434 187.500 91.567 186.899 C 90.999 186.505,90.510 185.923,90.150 185.213 L 89.600 184.128 89.600 150.258 C 89.600 113.484,89.527 115.826,90.711 114.422 C 91.868 113.050,92.120 113.009,99.550 113.004 L 106.200 113.000 106.200 106.394 C 106.200 99.203,106.238 98.922,107.361 97.725 C 108.708 96.288,104.626 96.409,151.860 96.404 C 198.460 96.400,194.696 96.300,196.068 97.573 C 197.487 98.889,197.400 97.608,197.398 117.142 L 197.396 134.700 196.819 135.707 C 196.397 136.443,195.972 136.861,195.243 137.257 L 194.246 137.800 162.623 137.800 L 131.000 137.800 131.000 150.300 L 131.000 162.800 154.206 162.800 C 179.616 162.800,178.176 162.734,179.468 163.961 C 180.788 165.213,180.800 165.291,180.800 172.692 L 180.800 179.400 187.508 179.400 C 195.442 179.400,195.851 179.508,197.077 181.940 C 197.561 182.900,197.573 250.198,197.089 251.356 C 196.058 253.825,195.453 253.990,187.450 253.996 L 180.800 254.000 180.800 260.723 L 180.800 267.446 180.260 268.438 C 179.889 269.119,179.435 269.598,178.810 269.965 L 177.900 270.500 146.458 270.600 L 115.015 270.700 117.658 274.542 L 120.300 278.384 218.211 278.392 L 316.121 278.400 317.138 278.907 C 319.520 280.093,319.601 280.500,319.596 291.199 C 319.590 301.624,319.530 301.939,317.300 303.169 C 316.745 303.475,309.996 303.507,227.268 303.600 L 137.837 303.700 171.134 351.850 L 204.431 400.000 262.170 400.000 L 319.908 400.000 320.885 397.650 C 333.371 367.590,362.863 346.523,395.000 344.705 C 396.155 344.640,397.753 344.537,398.550 344.476 L 400.000 344.366 400.000 228.265 L 400.000 112.165 399.250 112.284 C 392.458 113.360,378.582 112.531,369.000 110.475 C 318.651 99.673,284.897 52.649,290.526 1.150 L 290.652 0.000 186.312 0.000 C 87.034 0.000,81.978 0.017,82.081 0.350 M309.333 0.150 C 308.611 1.341,308.201 16.144,308.757 20.900 C 313.300 59.706,342.276 89.034,380.700 93.714 C 385.640 94.315,396.961 94.286,399.550 93.665 L 400.000 93.557 400.000 46.778 L 400.000 0.000 354.712 0.000 C 329.803 0.000,309.383 0.067,309.333 0.150 M314.907 96.981 C 315.644 97.404,316.060 97.828,316.460 98.562 L 317.006 99.566 316.953 117.366 L 316.900 135.166 316.300 136.017 C 315.970 136.486,315.303 137.079,314.819 137.335 L 313.937 137.800 282.269 137.800 L 250.600 137.800 250.600 150.300 L 250.600 162.800 273.806 162.800 C 299.216 162.800,297.776 162.734,299.068 163.961 C 300.488 165.308,300.400 164.012,300.400 183.515 L 300.400 201.046 299.857 202.043 C 299.461 202.772,299.043 203.197,298.307 203.619 L 297.300 204.196 273.950 204.198 L 250.600 204.200 250.600 216.700 L 250.600 229.200 282.208 229.200 C 317.487 229.200,314.481 229.081,315.827 230.532 C 317.082 231.885,317.012 230.649,316.953 250.179 L 316.900 267.966 316.300 268.817 C 315.970 269.286,315.303 269.879,314.819 270.135 L 313.937 270.600 263.219 270.596 C 214.445 270.591,212.469 270.577,211.692 270.224 C 210.798 269.818,209.883 268.844,209.470 267.856 C 209.067 266.896,209.067 100.104,209.470 99.144 C 209.883 98.156,210.798 97.182,211.692 96.776 C 212.469 96.423,214.442 96.409,263.200 96.406 L 313.900 96.404 314.907 96.981 M90.164 268.700 C 90.381 269.137,91.125 269.854,91.600 270.088 C 91.765 270.169,91.675 270.052,91.401 269.829 C 91.126 269.606,90.691 269.171,90.433 268.862 C 90.166 268.541,90.050 268.472,90.164 268.700 M81.589 279.750 L 80.900 280.500 81.650 279.811 C 82.348 279.169,82.492 279.000,82.339 279.000 C 82.306 279.000,81.968 279.338,81.589 279.750 M0.750 307.346 C 1.217 307.389,1.982 307.389,2.450 307.346 C 2.917 307.304,2.535 307.270,1.600 307.270 C 0.665 307.270,0.282 307.304,0.750 307.346 M5.750 307.541 C 5.998 307.589,6.403 307.589,6.650 307.541 C 6.897 307.493,6.695 307.454,6.200 307.454 C 5.705 307.454,5.503 307.493,5.750 307.541 M8.450 307.738 C 8.643 307.788,8.958 307.788,9.150 307.738 C 9.342 307.688,9.185 307.646,8.800 307.646 C 8.415 307.646,8.258 307.688,8.450 307.738 M43.000 317.100 C 43.275 317.257,43.590 317.386,43.700 317.386 C 43.810 317.386,43.675 317.257,43.400 317.100 C 43.125 316.943,42.810 316.814,42.700 316.814 C 42.590 316.814,42.725 316.943,43.000 317.100 M45.600 318.292 C 45.600 318.347,45.960 318.576,46.400 318.800 C 46.840 319.024,47.200 319.163,47.200 319.108 C 47.200 319.053,46.840 318.824,46.400 318.600 C 45.960 318.376,45.600 318.237,45.600 318.292 M0.453 325.744 C 0.757 325.789,1.207 325.788,1.453 325.741 C 1.699 325.693,1.450 325.656,0.900 325.657 C 0.350 325.659,0.149 325.698,0.453 325.744 M4.653 325.944 C 4.957 325.989,5.407 325.988,5.653 325.941 C 5.899 325.893,5.650 325.856,5.100 325.857 C 4.550 325.859,4.349 325.898,4.653 325.944 M67.192 333.250 C 67.682 333.773,68.110 334.200,68.142 334.200 C 68.292 334.200,68.133 334.020,67.250 333.192 L 66.300 332.300 67.192 333.250 M35.017 333.677 C 35.220 333.864,38.000 335.195,38.000 335.105 C 38.000 334.993,35.289 333.600,35.072 333.600 C 34.996 333.600,34.971 333.634,35.017 333.677 M70.700 336.600 C 71.796 337.700,72.737 338.600,72.792 338.600 C 72.847 338.600,71.996 337.700,70.900 336.600 C 69.804 335.500,68.863 334.600,68.808 334.600 C 68.753 334.600,69.604 335.500,70.700 336.600 M73.992 340.050 C 74.482 340.572,74.910 341.000,74.942 341.000 C 75.092 341.000,74.933 340.820,74.050 339.992 L 73.100 339.100 73.992 340.050 M53.000 345.263 C 53.000 345.297,53.292 345.590,53.650 345.913 L 54.300 346.500 53.713 345.850 C 53.165 345.244,53.000 345.108,53.000 345.263 M55.700 347.800 C 56.353 348.460,56.932 349.000,56.987 349.000 C 57.042 349.000,56.553 348.460,55.900 347.800 C 55.247 347.140,54.668 346.600,54.613 346.600 C 54.558 346.600,55.047 347.140,55.700 347.800 M59.500 351.600 C 60.153 352.260,60.732 352.800,60.787 352.800 C 60.842 352.800,60.353 352.260,59.700 351.600 C 59.047 350.940,58.468 350.400,58.413 350.400 C 58.358 350.400,58.847 350.940,59.500 351.600 M61.000 353.263 C 61.000 353.297,61.292 353.590,61.650 353.913 L 62.300 354.500 61.713 353.850 C 61.165 353.244,61.000 353.108,61.000 353.263 M88.600 361.000 C 88.824 361.440,89.053 361.800,89.108 361.800 C 89.163 361.800,89.024 361.440,88.800 361.000 C 88.576 360.560,88.347 360.200,88.292 360.200 C 88.237 360.200,88.376 360.560,88.600 361.000 M394.500 360.739 C 372.983 362.672,353.331 374.504,341.537 392.627 C 340.082 394.864,337.400 399.543,337.400 399.845 C 337.400 399.930,351.485 400.000,368.700 400.000 L 400.000 400.000 400.000 380.300 L 400.000 360.600 397.650 360.634 C 396.358 360.652,394.940 360.700,394.500 360.739 M90.017 363.700 C 90.017 363.810,90.189 364.215,90.400 364.600 C 90.611 364.985,90.783 365.210,90.783 365.100 C 90.783 364.990,90.611 364.585,90.400 364.200 C 90.189 363.815,90.017 363.590,90.017 363.700 M72.842 370.694 C 73.192 371.405,73.513 371.954,73.553 371.914 C 73.642 371.824,72.433 369.400,72.299 369.400 C 72.247 369.400,72.491 369.982,72.842 370.694 M99.646 398.400 C 99.646 398.785,99.688 398.943,99.738 398.750 C 99.788 398.558,99.788 398.243,99.738 398.050 C 99.688 397.858,99.646 398.015,99.646 398.400 " stroke="none" fill="#90bafb" fill-rule="evenodd"></path><path id="path1" d="M110.400 108.800 L 110.400 117.000 102.100 117.000 L 93.800 117.000 93.800 150.198 L 93.800 183.396 102.050 183.448 L 110.300 183.500 110.352 191.850 L 110.404 200.200 135.303 200.200 L 160.202 200.200 160.151 216.750 L 160.100 233.300 126.950 233.351 L 93.800 233.401 93.800 250.001 L 93.800 266.600 135.300 266.600 L 176.800 266.600 176.800 258.302 L 176.800 250.004 185.050 249.952 L 193.300 249.900 193.300 216.700 L 193.300 183.500 185.050 183.448 L 176.800 183.396 176.800 175.198 L 176.800 167.000 151.900 167.000 L 127.000 167.000 127.000 150.401 L 127.000 133.801 160.150 133.751 L 193.300 133.700 193.351 117.150 L 193.402 100.600 151.901 100.600 L 110.400 100.600 110.400 108.800 M213.400 183.600 L 213.400 266.600 263.200 266.600 L 313.000 266.600 313.000 250.000 L 313.000 233.400 279.800 233.400 L 246.600 233.400 246.600 216.801 L 246.600 200.202 271.450 200.151 L 296.300 200.100 296.351 183.550 L 296.402 167.000 271.501 167.000 L 246.600 167.000 246.600 150.401 L 246.600 133.801 279.750 133.751 L 312.900 133.700 312.951 117.150 L 313.002 100.600 263.201 100.600 L 213.400 100.600 213.400 183.600 M120.523 105.357 C 124.031 107.245,122.645 112.600,118.649 112.600 C 114.983 112.600,113.372 107.920,116.276 105.705 C 117.368 104.872,119.323 104.712,120.523 105.357 M137.020 105.318 C 138.518 106.071,139.393 107.961,139.001 109.594 C 138.192 112.968,133.828 113.750,131.990 110.852 C 129.896 107.550,133.523 103.560,137.020 105.318 M153.700 105.348 C 157.236 107.273,155.877 112.600,151.849 112.600 C 148.183 112.600,146.572 107.920,149.476 105.705 C 150.560 104.878,152.531 104.711,153.700 105.348 M170.220 105.318 C 171.602 106.012,172.526 107.843,172.278 109.394 C 171.723 112.863,167.072 113.820,165.190 110.852 C 163.096 107.550,166.723 103.560,170.220 105.318 M186.800 105.309 C 189.064 106.465,189.633 109.410,187.959 111.316 C 185.588 114.017,181.200 112.338,181.200 108.729 C 181.200 105.904,184.281 104.022,186.800 105.309 M223.420 105.317 C 224.194 105.708,225.150 106.887,225.388 107.745 C 226.571 112.004,220.758 114.585,218.390 110.852 C 216.292 107.544,219.924 103.549,223.420 105.317 M240.020 105.317 C 240.741 105.681,241.770 106.897,241.914 107.554 C 241.980 107.854,242.069 108.216,242.113 108.357 C 243.004 111.231,238.411 113.829,235.867 111.889 C 232.182 109.078,235.881 103.224,240.020 105.317 M256.620 105.317 C 257.394 105.708,258.350 106.887,258.588 107.745 C 259.771 112.004,253.958 114.585,251.590 110.852 C 249.492 107.544,253.124 103.549,256.620 105.317 M273.200 105.309 C 274.766 106.109,275.612 107.981,275.181 109.693 C 274.097 113.996,267.960 113.445,267.640 109.016 C 267.424 106.025,270.537 103.949,273.200 105.309 M289.820 105.317 C 290.594 105.708,291.550 106.887,291.788 107.745 C 292.939 111.891,287.242 114.574,284.876 111.000 C 282.659 107.649,286.256 103.515,289.820 105.317 M306.400 105.309 C 307.966 106.109,308.812 107.981,308.381 109.693 C 307.297 113.996,301.160 113.445,300.840 109.016 C 300.624 106.025,303.737 103.949,306.400 105.309 M103.537 121.813 C 105.517 122.561,106.477 125.171,105.479 127.094 C 103.524 130.860,97.967 129.331,98.236 125.101 C 98.404 122.470,101.006 120.856,103.537 121.813 M120.260 121.870 C 124.012 123.438,122.731 129.200,118.630 129.200 C 114.588 129.200,113.309 123.830,116.900 121.933 C 117.641 121.541,119.394 121.509,120.260 121.870 M136.860 121.870 C 138.442 122.531,139.411 124.488,139.001 126.194 C 137.888 130.833,131.133 129.857,131.436 125.101 C 131.607 122.415,134.310 120.805,136.860 121.870 M153.460 121.870 C 154.899 122.472,155.946 124.330,155.715 125.872 C 155.027 130.458,148.374 130.238,148.040 125.618 C 147.830 122.713,150.710 120.721,153.460 121.870 M170.060 121.870 C 171.642 122.531,172.611 124.488,172.201 126.194 C 171.088 130.833,164.333 129.857,164.636 125.101 C 164.807 122.415,167.510 120.805,170.060 121.870 M186.760 121.882 C 190.463 123.817,189.156 129.200,184.984 129.200 C 180.985 129.200,179.737 123.815,183.300 121.933 C 184.053 121.535,186.039 121.506,186.760 121.882 M223.260 121.870 C 224.842 122.531,225.811 124.488,225.401 126.194 C 224.273 130.898,217.490 129.819,217.839 124.992 C 218.026 122.406,220.765 120.828,223.260 121.870 M239.737 121.813 C 243.446 123.214,242.495 128.909,238.510 129.163 C 234.213 129.437,232.679 123.902,236.500 121.915 C 237.190 121.555,238.913 121.501,239.737 121.813 M256.460 121.870 C 258.652 122.786,259.402 125.727,257.931 127.639 C 255.499 130.800,250.751 128.976,251.039 124.992 C 251.226 122.406,253.965 120.828,256.460 121.870 M272.937 121.813 C 274.917 122.561,275.877 125.171,274.879 127.094 C 272.995 130.724,267.600 129.415,267.600 125.329 C 267.600 122.637,270.340 120.832,272.937 121.813 M289.660 121.870 C 291.852 122.786,292.602 125.727,291.131 127.639 C 288.706 130.792,283.951 128.977,284.238 125.008 C 284.425 122.421,287.172 120.831,289.660 121.870 M306.260 121.870 C 307.842 122.531,308.811 124.488,308.401 126.194 C 307.326 130.678,300.800 129.936,300.800 125.329 C 300.800 122.580,303.644 120.778,306.260 121.870 M223.523 138.557 C 226.691 140.262,225.890 145.156,222.336 145.811 C 218.409 146.534,216.118 141.472,219.233 138.951 C 220.310 138.079,222.295 137.897,223.523 138.557 M239.496 138.303 C 242.830 138.994,242.789 145.006,239.446 145.709 C 239.146 145.772,238.736 145.857,238.536 145.897 C 234.143 146.777,232.797 139.436,237.141 138.290 C 238.047 138.051,238.286 138.052,239.496 138.303 M103.663 138.424 C 107.641 140.468,106.058 146.084,101.596 145.761 C 97.850 145.490,96.857 140.365,100.202 138.571 C 100.990 138.149,102.964 138.065,103.663 138.424 M120.380 138.490 C 124.202 140.466,122.628 146.039,118.326 145.765 C 114.410 145.516,113.393 140.344,116.900 138.515 C 117.658 138.120,119.637 138.106,120.380 138.490 M104.339 155.527 C 107.587 158.152,105.591 162.758,101.381 162.353 C 97.844 162.013,96.976 156.926,100.161 155.197 C 101.336 154.559,103.336 154.717,104.339 155.527 M120.260 155.070 C 124.075 156.664,122.775 162.400,118.598 162.400 C 114.534 162.400,113.282 157.045,116.900 155.133 C 117.641 154.741,119.394 154.709,120.260 155.070 M223.260 155.070 C 224.942 155.773,225.895 157.831,225.386 159.664 C 224.217 163.872,217.800 163.010,217.800 158.645 C 217.800 155.795,220.603 153.960,223.260 155.070 M240.539 155.527 C 243.787 158.152,241.791 162.758,237.581 162.353 C 234.007 162.010,233.178 156.937,236.405 155.159 C 237.521 154.544,239.545 154.724,240.539 155.527 M103.663 171.624 C 107.365 173.526,106.182 179.029,102.072 179.029 C 98.052 179.029,96.670 173.665,100.202 171.771 C 100.990 171.349,102.964 171.265,103.663 171.624 M120.380 171.690 C 123.924 173.522,122.749 179.000,118.805 179.031 C 114.572 179.063,113.172 173.703,116.900 171.733 C 117.660 171.332,119.640 171.307,120.380 171.690 M136.863 171.624 C 140.565 173.526,139.382 179.029,135.272 179.029 C 131.252 179.029,129.870 173.665,133.402 171.771 C 134.190 171.349,136.164 171.265,136.863 171.624 M153.580 171.690 C 157.124 173.522,155.949 179.000,152.005 179.031 C 147.785 179.063,146.384 173.696,150.100 171.733 C 150.860 171.332,152.840 171.307,153.580 171.690 M170.180 171.690 C 173.774 173.548,172.520 179.007,168.490 179.043 C 164.476 179.079,163.070 173.665,166.602 171.771 C 167.447 171.318,169.376 171.274,170.180 171.690 M223.380 171.690 C 226.987 173.555,225.712 179.057,221.672 179.057 C 217.670 179.057,216.284 173.658,219.802 171.771 C 220.647 171.318,222.576 171.274,223.380 171.690 M239.863 171.624 C 242.946 173.208,242.660 178.210,239.446 178.914 C 239.146 178.980,238.784 179.069,238.643 179.113 C 236.149 179.887,233.535 176.218,234.674 173.544 C 235.410 171.818,238.218 170.779,239.863 171.624 M256.580 171.690 C 260.187 173.555,258.912 179.057,254.872 179.057 C 250.865 179.057,249.480 173.660,253.002 171.771 C 253.847 171.318,255.776 171.274,256.580 171.690 M273.063 171.624 C 276.737 173.512,275.550 179.057,271.472 179.057 C 267.408 179.057,266.090 173.597,269.700 171.715 C 270.400 171.350,272.423 171.296,273.063 171.624 M289.780 171.690 C 293.387 173.555,292.112 179.057,288.072 179.057 C 283.998 179.057,282.682 173.602,286.300 171.715 C 287.058 171.320,289.037 171.306,289.780 171.690 M120.260 188.270 C 124.021 189.842,122.797 195.600,118.702 195.600 C 114.540 195.600,113.221 190.277,116.900 188.333 C 117.641 187.941,119.394 187.909,120.260 188.270 M137.539 188.727 C 140.787 191.352,138.791 195.958,134.581 195.553 C 130.943 195.203,130.186 190.134,133.500 188.322 C 134.530 187.759,136.597 187.966,137.539 188.727 M153.460 188.270 C 157.221 189.842,155.997 195.600,151.902 195.600 C 149.544 195.600,148.000 194.076,148.000 191.749 C 148.000 189.031,150.883 187.194,153.460 188.270 M170.739 188.727 C 173.993 191.357,171.999 195.958,167.781 195.553 C 164.143 195.203,163.386 190.134,166.700 188.322 C 167.730 187.759,169.797 187.966,170.739 188.727 M186.537 188.213 C 188.307 188.882,189.315 190.959,188.788 192.855 C 187.835 196.286,182.875 196.622,181.508 193.349 C 180.185 190.183,183.308 186.993,186.537 188.213 M223.260 188.270 C 227.049 189.854,225.793 195.600,221.657 195.600 C 217.526 195.600,216.237 190.268,219.900 188.333 C 220.641 187.941,222.394 187.909,223.260 188.270 M240.539 188.727 C 243.781 191.347,241.783 195.957,237.581 195.553 C 234.037 195.212,233.171 190.129,236.361 188.397 C 237.536 187.759,239.536 187.917,240.539 188.727 M256.460 188.270 C 258.652 189.186,259.402 192.127,257.931 194.039 C 255.621 197.042,251.000 195.502,251.000 191.729 C 251.000 188.997,253.861 187.185,256.460 188.270 M273.739 188.727 C 276.576 191.021,275.306 195.334,271.726 195.562 C 267.468 195.833,265.941 190.377,269.700 188.322 C 270.730 187.759,272.797 187.966,273.739 188.727 M289.660 188.270 C 291.858 189.189,292.599 192.114,291.125 194.060 C 288.859 197.054,284.200 195.486,284.200 191.729 C 284.200 188.997,287.061 187.185,289.660 188.270 M170.180 204.890 C 173.774 206.748,172.497 212.257,168.472 212.257 C 164.470 212.257,163.084 206.858,166.602 204.971 C 167.447 204.518,169.376 204.474,170.180 204.890 M186.760 204.882 C 190.810 206.998,188.648 213.174,184.206 212.179 C 180.671 211.387,180.077 206.636,183.300 204.933 C 184.053 204.535,186.039 204.506,186.760 204.882 M223.380 204.890 C 226.987 206.755,225.712 212.257,221.672 212.257 C 217.670 212.257,216.284 206.858,219.802 204.971 C 220.647 204.518,222.576 204.474,223.380 204.890 M239.737 204.813 C 242.918 206.015,242.704 211.401,239.446 212.114 C 239.146 212.180,238.784 212.269,238.643 212.313 C 237.443 212.685,235.041 211.235,234.589 209.866 C 233.508 206.590,236.547 203.607,239.737 204.813 M170.739 221.927 C 173.305 224.001,172.543 227.954,169.415 228.796 C 164.968 229.993,162.635 223.744,166.700 221.522 C 167.730 220.959,169.797 221.166,170.739 221.927 M186.660 221.470 C 188.101 222.072,189.156 223.946,188.912 225.471 C 188.278 229.439,183.036 230.206,181.510 226.554 C 180.163 223.331,183.420 220.117,186.660 221.470 M223.260 221.470 C 224.700 222.072,225.780 224.054,225.501 225.582 C 224.669 230.138,218.130 229.920,217.838 225.326 C 217.645 222.301,220.459 220.300,223.260 221.470 M240.539 221.927 C 243.900 224.644,241.275 229.935,237.136 228.786 C 233.898 227.887,233.394 223.208,236.361 221.597 C 237.536 220.959,239.536 221.117,240.539 221.927 M103.537 238.013 C 107.379 239.464,106.229 245.406,102.098 245.443 C 98.071 245.479,96.661 240.070,100.202 238.171 C 100.977 237.755,102.646 237.676,103.537 238.013 M120.260 238.070 C 122.584 239.041,123.260 242.179,121.562 244.113 C 119.154 246.855,114.800 245.237,114.800 241.600 C 114.800 238.796,117.625 236.969,120.260 238.070 M136.737 238.013 C 140.585 239.467,139.406 245.457,135.272 245.457 C 131.270 245.457,129.884 240.058,133.402 238.171 C 134.177 237.755,135.846 237.676,136.737 238.013 M153.580 238.090 C 157.606 240.172,155.418 246.368,151.006 245.379 C 147.456 244.583,146.863 239.843,150.100 238.133 C 150.860 237.732,152.840 237.707,153.580 238.090 M170.060 238.070 C 173.799 239.633,172.547 245.457,168.472 245.457 C 164.470 245.457,163.084 240.058,166.602 238.171 C 167.427 237.729,169.124 237.679,170.060 238.070 M186.780 238.090 C 190.808 240.172,188.619 246.368,184.206 245.379 C 180.671 244.587,180.077 239.836,183.300 238.133 C 184.060 237.732,186.040 237.707,186.780 238.090 M223.260 238.070 C 227.012 239.638,225.762 245.457,221.672 245.457 C 217.570 245.457,216.257 240.015,219.900 238.115 C 220.638 237.730,222.390 237.707,223.260 238.070 M239.737 238.013 C 242.182 238.937,242.870 242.275,241.026 244.268 C 239.022 246.432,235.006 245.465,234.485 242.693 C 233.861 239.364,236.675 236.856,239.737 238.013 M256.580 238.090 C 260.606 240.172,258.418 246.368,254.006 245.379 C 250.462 244.585,249.866 239.802,253.100 238.115 C 253.858 237.720,255.837 237.706,256.580 238.090 M273.063 238.024 C 276.146 239.608,275.860 244.610,272.646 245.314 C 272.346 245.380,271.984 245.469,271.843 245.513 C 269.304 246.300,266.662 242.422,267.979 239.842 C 268.867 238.102,271.431 237.186,273.063 238.024 M289.780 238.090 C 293.806 240.172,291.618 246.368,287.206 245.379 C 283.662 244.585,283.066 239.802,286.300 238.115 C 287.058 237.720,289.037 237.706,289.780 238.090 M306.263 238.024 C 309.346 239.608,309.060 244.610,305.846 245.314 C 305.546 245.380,305.184 245.469,305.043 245.513 C 303.895 245.869,301.795 244.672,301.176 243.308 C 299.703 240.065,303.188 236.445,306.263 238.024 M104.339 255.127 C 108.028 258.109,104.412 263.843,100.200 261.691 C 97.446 260.284,97.503 256.251,100.300 254.722 C 101.330 254.159,103.397 254.366,104.339 255.127 M120.260 254.670 C 121.700 255.272,122.780 257.254,122.501 258.782 C 121.612 263.648,114.484 262.908,114.840 257.986 C 115.035 255.290,117.757 253.624,120.260 254.670 M137.539 255.127 C 141.228 258.109,137.612 263.843,133.400 261.691 C 130.646 260.284,130.703 256.251,133.500 254.722 C 134.530 254.159,136.597 254.366,137.539 255.127 M153.460 254.670 C 154.900 255.272,155.980 257.254,155.701 258.782 C 154.812 263.648,147.684 262.908,148.040 257.986 C 148.235 255.290,150.957 253.624,153.460 254.670 M170.689 255.078 C 173.747 257.411,172.221 262.082,168.398 262.091 C 164.348 262.100,163.101 256.690,166.700 254.722 C 167.688 254.182,169.756 254.366,170.689 255.078 M223.939 255.127 C 226.924 257.540,225.398 262.082,221.598 262.091 C 217.548 262.100,216.301 256.690,219.900 254.722 C 220.930 254.159,222.997 254.366,223.939 255.127 M240.525 255.117 C 243.885 257.837,241.272 263.134,237.136 261.986 C 233.898 261.087,233.394 256.408,236.361 254.797 C 237.528 254.163,239.537 254.317,240.525 255.117 M257.139 255.127 C 260.124 257.540,258.598 262.082,254.798 262.091 C 250.748 262.100,249.501 256.690,253.100 254.722 C 254.130 254.159,256.197 254.366,257.139 255.127 M273.739 255.127 C 276.281 257.182,275.542 261.131,272.455 261.988 C 267.997 263.226,265.619 256.954,269.700 254.722 C 270.730 254.159,272.797 254.366,273.739 255.127 M289.660 254.670 C 291.100 255.272,292.180 257.254,291.901 258.782 C 291.068 263.345,284.531 263.127,284.238 258.526 C 284.045 255.501,286.859 253.500,289.660 254.670 M306.939 255.127 C 310.294 257.839,307.683 263.137,303.556 261.991 C 300.358 261.103,299.828 256.388,302.750 254.803 C 303.936 254.159,305.932 254.313,306.939 255.127 M84.600 291.100 L 84.600 299.600 200.000 299.600 L 315.400 299.600 315.400 291.100 L 315.400 282.600 200.000 282.600 L 84.600 282.600 84.600 291.100 " stroke="none" fill="#cbbb04" fill-rule="evenodd"></path><path id="path2" d="M108.900 96.776 C 106.382 97.931,106.210 98.550,106.204 106.450 L 106.200 113.000 99.650 113.004 C 91.690 113.010,90.866 113.261,89.909 115.976 C 89.434 117.320,89.440 183.260,89.915 184.653 C 90.811 187.284,91.869 187.597,99.842 187.599 L 106.185 187.600 106.242 194.366 L 106.300 201.132 106.903 202.107 C 107.342 202.817,107.797 203.234,108.576 203.641 L 109.646 204.200 132.823 204.200 L 156.000 204.200 156.000 216.700 L 156.000 229.200 124.773 229.200 C 90.155 229.200,92.488 229.104,90.990 230.595 C 89.519 232.060,89.577 231.207,89.642 250.400 C 89.706 269.346,89.607 267.977,91.020 269.359 C 92.401 270.709,88.890 270.615,135.615 270.555 L 177.929 270.500 178.763 269.948 C 179.221 269.645,179.845 269.022,180.148 268.563 L 180.700 267.730 180.757 260.865 L 180.815 254.000 187.357 253.996 C 195.360 253.990,195.812 253.872,196.926 251.500 L 197.396 250.500 197.398 216.780 C 197.400 181.066,197.435 182.359,196.446 181.028 C 195.318 179.511,194.722 179.404,187.350 179.402 L 180.800 179.400 180.800 172.824 C 180.800 164.873,180.670 164.373,178.316 163.277 L 177.300 162.804 154.150 162.802 L 131.000 162.800 131.000 150.300 L 131.000 137.800 162.450 137.798 L 193.900 137.796 194.923 137.320 C 196.009 136.814,196.799 135.937,197.172 134.820 C 197.645 133.409,197.470 100.074,196.985 99.004 C 196.436 97.794,196.076 97.426,194.900 96.874 L 193.900 96.404 151.800 96.406 C 111.389 96.409,109.668 96.424,108.900 96.776 M212.100 96.698 C 211.101 97.048,209.756 98.489,209.439 99.550 C 209.030 100.913,209.099 266.464,209.509 267.625 C 209.678 268.106,210.146 268.837,210.548 269.248 C 211.995 270.732,207.259 270.615,263.515 270.554 L 314.129 270.500 314.963 269.948 C 315.421 269.645,316.045 269.021,316.348 268.563 L 316.900 267.729 316.953 250.207 L 317.006 232.685 316.453 231.593 C 316.037 230.772,315.657 230.353,314.916 229.901 L 313.931 229.300 282.266 229.248 L 250.600 229.196 250.600 216.698 L 250.600 204.200 273.750 204.198 L 296.900 204.196 297.916 203.723 C 300.537 202.502,300.421 203.484,300.356 183.184 L 300.300 165.868 299.697 164.893 C 299.258 164.183,298.803 163.766,298.024 163.359 L 296.954 162.800 273.777 162.800 L 250.600 162.800 250.600 150.300 L 250.600 137.800 282.064 137.800 L 313.528 137.800 314.613 137.250 C 315.323 136.890,315.905 136.401,316.299 135.833 L 316.900 134.966 316.960 117.633 C 317.030 97.284,317.125 98.092,314.523 96.880 L 313.500 96.404 263.200 96.411 C 220.574 96.417,212.778 96.460,212.100 96.698 M193.351 117.150 L 193.300 133.700 160.150 133.751 L 127.000 133.801 127.000 150.401 L 127.000 167.000 151.900 167.000 L 176.800 167.000 176.800 175.198 L 176.800 183.396 185.050 183.448 L 193.300 183.500 193.300 216.700 L 193.300 249.900 185.050 249.952 L 176.800 250.004 176.800 258.302 L 176.800 266.600 135.300 266.600 L 93.800 266.600 93.800 250.001 L 93.800 233.401 126.950 233.351 L 160.100 233.300 160.151 216.750 L 160.202 200.200 135.303 200.200 L 110.404 200.200 110.352 191.850 L 110.300 183.500 102.050 183.448 L 93.800 183.396 93.800 150.198 L 93.800 117.000 102.100 117.000 L 110.400 117.000 110.400 108.800 L 110.400 100.600 151.901 100.600 L 193.402 100.600 193.351 117.150 M312.951 117.150 L 312.900 133.700 279.750 133.751 L 246.600 133.801 246.600 150.401 L 246.600 167.000 271.501 167.000 L 296.402 167.000 296.351 183.550 L 296.300 200.100 271.450 200.151 L 246.600 200.202 246.600 216.801 L 246.600 233.400 279.800 233.400 L 313.000 233.400 313.000 250.000 L 313.000 266.600 263.200 266.600 L 213.400 266.600 213.400 183.600 L 213.400 100.600 263.201 100.600 L 313.002 100.600 312.951 117.150 M117.828 105.034 C 114.514 105.615,113.688 110.196,116.568 112.023 C 120.324 114.404,124.489 109.620,121.562 106.287 C 120.542 105.125,119.431 104.752,117.828 105.034 M134.291 105.036 C 131.782 105.568,130.574 108.620,131.990 110.852 C 133.371 113.030,136.534 113.258,138.152 111.295 C 140.578 108.352,138.042 104.240,134.291 105.036 M151.028 105.034 C 147.714 105.615,146.888 110.196,149.768 112.023 C 153.620 114.466,157.780 109.436,154.639 106.133 C 153.663 105.106,152.548 104.767,151.028 105.034 M167.491 105.036 C 165.776 105.399,164.600 106.947,164.600 108.841 C 164.600 112.560,169.369 114.047,171.567 111.013 C 173.680 108.097,171.075 104.276,167.491 105.036 M184.113 105.025 C 179.733 106.049,180.543 112.600,185.049 112.600 C 186.409 112.600,187.099 112.295,187.959 111.316 C 190.457 108.471,187.820 104.159,184.113 105.025 M220.691 105.026 C 218.172 105.591,216.975 108.621,218.390 110.852 C 219.793 113.065,222.823 113.293,224.559 111.316 C 227.060 108.468,224.427 104.187,220.691 105.026 M237.141 105.085 C 232.319 106.380,234.267 113.538,239.171 112.545 C 240.803 112.214,242.542 109.739,242.113 108.357 C 242.069 108.216,241.980 107.854,241.914 107.554 C 241.518 105.743,239.184 104.537,237.141 105.085 M253.891 105.026 C 251.372 105.591,250.175 108.621,251.590 110.852 C 252.993 113.065,256.023 113.293,257.759 111.316 C 260.260 108.468,257.627 104.187,253.891 105.026 M270.513 105.025 C 266.103 106.056,266.958 112.629,271.502 112.629 C 272.774 112.629,273.557 112.260,274.364 111.280 C 276.765 108.367,274.180 104.168,270.513 105.025 M287.029 105.038 C 285.891 105.291,284.483 106.656,284.288 107.695 C 283.506 111.862,288.229 114.425,290.959 111.316 C 293.485 108.439,290.827 104.192,287.029 105.038 M303.713 105.025 C 299.303 106.056,300.158 112.629,304.702 112.629 C 305.974 112.629,306.757 112.260,307.564 111.280 C 309.965 108.367,307.380 104.168,303.713 105.025 M100.202 121.971 C 97.549 123.394,97.498 127.186,100.112 128.718 C 104.000 130.996,107.946 125.665,104.668 122.563 C 103.577 121.531,101.528 121.260,100.202 121.971 M116.900 121.933 C 113.309 123.830,114.588 129.200,118.630 129.200 C 121.978 129.200,123.741 125.369,121.545 122.868 C 120.452 121.623,118.304 121.191,116.900 121.933 M133.402 121.971 C 129.915 123.841,131.238 129.200,135.187 129.200 C 138.565 129.200,140.349 125.379,138.145 122.868 C 137.016 121.583,134.880 121.179,133.402 121.971 M150.100 121.933 C 146.364 123.907,147.887 129.432,152.093 129.164 C 157.144 128.843,156.820 121.570,151.756 121.608 C 151.175 121.612,150.430 121.759,150.100 121.933 M166.602 121.971 C 163.115 123.841,164.438 129.200,168.387 129.200 C 171.765 129.200,173.549 125.379,171.345 122.868 C 170.216 121.583,168.080 121.179,166.602 121.971 M183.300 121.933 C 179.737 123.815,180.985 129.200,184.984 129.200 C 189.156 129.200,190.463 123.817,186.760 121.882 C 186.039 121.506,184.053 121.535,183.300 121.933 M219.802 121.971 C 216.340 123.828,217.645 129.200,221.559 129.200 C 224.964 129.200,226.760 125.391,224.545 122.868 C 223.416 121.583,221.280 121.179,219.802 121.971 M236.500 121.915 C 232.679 123.902,234.213 129.437,238.510 129.163 C 242.495 128.909,243.446 123.214,239.737 121.813 C 238.913 121.501,237.190 121.555,236.500 121.915 M253.002 121.971 C 249.520 123.839,250.847 129.200,254.792 129.200 C 258.178 129.200,259.956 125.386,257.745 122.868 C 256.616 121.583,254.480 121.179,253.002 121.971 M269.700 121.915 C 265.975 123.857,267.452 129.378,271.639 129.158 C 275.074 128.978,276.566 124.927,274.068 122.563 C 273.020 121.572,270.949 121.264,269.700 121.915 M286.161 122.008 C 282.710 123.830,284.078 129.200,287.992 129.200 C 291.378 129.200,293.156 125.386,290.945 122.868 C 289.803 121.567,287.708 121.191,286.161 122.008 M302.900 121.915 C 299.344 123.769,300.581 129.200,304.559 129.200 C 307.964 129.200,309.760 125.391,307.545 122.868 C 306.456 121.627,304.300 121.185,302.900 121.915 M220.812 138.236 C 216.852 138.931,216.796 144.878,220.740 145.764 C 224.442 146.596,227.047 142.317,224.562 139.487 C 223.538 138.321,222.431 137.952,220.812 138.236 M237.141 138.290 C 232.797 139.436,234.143 146.777,238.536 145.897 C 238.736 145.857,239.146 145.772,239.446 145.709 C 242.789 145.006,242.830 138.994,239.496 138.303 C 238.286 138.052,238.047 138.051,237.141 138.290 M100.202 138.571 C 96.857 140.365,97.850 145.490,101.596 145.761 C 104.191 145.949,105.865 144.474,105.865 142.000 C 105.865 139.083,102.756 137.201,100.202 138.571 M116.900 138.515 C 113.393 140.344,114.410 145.516,118.326 145.765 C 122.628 146.039,124.202 140.466,120.380 138.490 C 119.637 138.106,117.658 138.120,116.900 138.515 M100.161 155.197 C 96.976 156.926,97.844 162.013,101.381 162.353 C 104.079 162.612,105.863 161.109,105.866 158.576 C 105.868 155.719,102.678 153.830,100.161 155.197 M116.900 155.133 C 113.282 157.045,114.534 162.400,118.598 162.400 C 122.040 162.400,123.793 158.628,121.542 156.065 C 120.452 154.823,118.303 154.392,116.900 155.133 M219.900 155.133 C 216.466 156.947,217.378 162.085,221.182 162.360 C 224.886 162.628,226.935 158.790,224.542 156.065 C 223.452 154.823,221.303 154.392,219.900 155.133 M236.405 155.159 C 233.178 156.937,234.007 162.010,237.581 162.353 C 241.791 162.758,243.787 158.152,240.539 155.527 C 239.545 154.724,237.521 154.544,236.405 155.159 M100.202 171.771 C 96.670 173.665,98.052 179.029,102.072 179.029 C 106.182 179.029,107.365 173.526,103.663 171.624 C 102.964 171.265,100.990 171.349,100.202 171.771 M116.900 171.733 C 114.380 173.064,114.027 176.601,116.248 178.265 C 119.972 181.055,124.620 176.171,121.559 172.684 C 120.428 171.396,118.344 170.970,116.900 171.733 M133.402 171.771 C 129.870 173.665,131.252 179.029,135.272 179.029 C 139.382 179.029,140.565 173.526,136.863 171.624 C 136.164 171.265,134.190 171.349,133.402 171.771 M150.100 171.733 C 147.610 173.049,147.243 176.612,149.428 178.250 C 153.169 181.054,157.833 176.185,154.759 172.684 C 153.628 171.396,151.544 170.970,150.100 171.733 M166.602 171.771 C 163.070 173.665,164.476 179.079,168.490 179.043 C 172.520 179.007,173.774 173.548,170.180 171.690 C 169.376 171.274,167.447 171.318,166.602 171.771 M219.802 171.771 C 217.102 173.219,217.146 177.247,219.878 178.664 C 221.982 179.756,224.752 178.545,225.388 176.255 C 226.287 173.017,222.760 170.185,219.802 171.771 M236.500 171.715 C 233.236 173.412,233.816 178.213,237.377 178.976 C 237.932 179.095,238.502 179.157,238.643 179.113 C 238.784 179.069,239.146 178.980,239.446 178.914 C 242.095 178.334,242.968 174.318,240.868 172.374 C 239.745 171.335,237.796 171.041,236.500 171.715 M253.002 171.771 C 249.480 173.660,250.865 179.057,254.872 179.057 C 258.912 179.057,260.187 173.555,256.580 171.690 C 255.776 171.274,253.847 171.318,253.002 171.771 M269.700 171.715 C 266.090 173.597,267.408 179.057,271.472 179.057 C 275.550 179.057,276.737 173.512,273.063 171.624 C 272.423 171.296,270.400 171.350,269.700 171.715 M286.300 171.715 C 282.682 173.602,283.998 179.057,288.072 179.057 C 292.112 179.057,293.387 173.555,289.780 171.690 C 289.037 171.306,287.058 171.320,286.300 171.715 M116.900 188.333 C 113.221 190.277,114.540 195.600,118.702 195.600 C 122.058 195.600,123.764 191.795,121.542 189.265 C 120.452 188.023,118.303 187.592,116.900 188.333 M133.500 188.322 C 130.186 190.134,130.943 195.203,134.581 195.553 C 138.791 195.958,140.787 191.352,137.539 188.727 C 136.597 187.966,134.530 187.759,133.500 188.322 M149.939 188.419 C 148.286 189.292,147.483 191.798,148.324 193.460 C 149.928 196.628,154.650 196.235,155.588 192.855 C 156.497 189.582,152.976 186.817,149.939 188.419 M166.700 188.322 C 163.386 190.134,164.143 195.203,167.781 195.553 C 171.999 195.958,173.993 191.357,170.739 188.727 C 169.797 187.966,167.730 187.759,166.700 188.322 M183.053 188.512 C 181.417 189.492,180.758 191.556,181.508 193.349 C 182.875 196.622,187.835 196.286,188.788 192.855 C 189.722 189.490,186.055 186.712,183.053 188.512 M219.900 188.333 C 216.237 190.268,217.526 195.600,221.657 195.600 C 225.057 195.600,226.781 191.815,224.542 189.265 C 223.452 188.023,221.303 187.592,219.900 188.333 M236.361 188.397 C 233.171 190.129,234.037 195.212,237.581 195.553 C 240.280 195.812,242.029 194.341,242.053 191.792 C 242.080 188.925,238.891 187.023,236.361 188.397 M253.100 188.333 C 249.525 190.222,250.777 195.600,254.792 195.600 C 258.178 195.600,259.956 191.786,257.745 189.268 C 256.652 188.023,254.504 187.591,253.100 188.333 M269.700 188.322 C 265.941 190.377,267.468 195.833,271.726 195.562 C 276.521 195.257,276.440 188.264,271.639 188.053 C 270.684 188.011,270.128 188.088,269.700 188.322 M286.300 188.333 C 282.727 190.221,283.977 195.601,287.989 195.600 C 291.389 195.599,293.164 191.795,290.945 189.268 C 289.852 188.023,287.704 187.591,286.300 188.333 M166.602 204.971 C 163.084 206.858,164.470 212.257,168.472 212.257 C 172.497 212.257,173.774 206.748,170.180 204.890 C 169.376 204.474,167.447 204.518,166.602 204.971 M183.300 204.933 C 180.077 206.636,180.671 211.387,184.206 212.179 C 187.955 213.019,190.490 208.522,187.839 205.732 C 186.745 204.580,184.662 204.213,183.300 204.933 M219.802 204.971 C 217.102 206.419,217.146 210.447,219.878 211.864 C 221.982 212.956,224.752 211.745,225.388 209.455 C 226.287 206.217,222.760 203.385,219.802 204.971 M236.402 204.971 C 233.263 206.654,233.905 211.432,237.370 212.175 C 237.929 212.295,238.502 212.357,238.643 212.313 C 238.784 212.269,239.146 212.180,239.446 212.114 C 242.088 211.535,242.956 207.538,240.868 205.563 C 239.777 204.531,237.728 204.260,236.402 204.971 M166.700 221.522 C 162.635 223.744,164.968 229.993,169.415 228.796 C 172.543 227.954,173.305 224.001,170.739 221.927 C 169.797 221.166,167.730 220.959,166.700 221.522 M183.224 221.634 C 181.011 222.729,180.513 225.896,182.260 227.766 C 183.898 229.521,187.098 229.170,188.309 227.102 C 190.356 223.610,186.850 219.839,183.224 221.634 M219.900 221.533 C 216.297 223.437,217.526 228.832,221.573 228.877 C 224.974 228.914,226.782 225.016,224.545 222.468 C 223.452 221.223,221.304 220.791,219.900 221.533 M236.361 221.597 C 233.394 223.208,233.898 227.887,237.136 228.786 C 241.275 229.935,243.900 224.644,240.539 221.927 C 239.536 221.117,237.536 220.959,236.361 221.597 M100.202 238.171 C 96.661 240.070,98.071 245.479,102.098 245.443 C 105.589 245.411,107.219 241.176,104.668 238.763 C 103.577 237.731,101.528 237.460,100.202 238.171 M116.900 238.133 C 113.663 239.843,114.256 244.583,117.806 245.379 C 121.475 246.201,124.025 241.892,121.542 239.065 C 120.452 237.823,118.303 237.392,116.900 238.133 M133.402 238.171 C 129.884 240.058,131.270 245.457,135.272 245.457 C 138.762 245.457,140.421 241.179,137.868 238.763 C 136.777 237.731,134.728 237.460,133.402 238.171 M150.100 238.133 C 146.863 239.843,147.456 244.583,151.006 245.379 C 154.659 246.198,157.226 241.893,154.759 239.084 C 153.628 237.796,151.544 237.370,150.100 238.133 M166.602 238.171 C 163.084 240.058,164.470 245.457,168.472 245.457 C 171.792 245.457,173.540 241.568,171.345 239.068 C 170.216 237.783,168.080 237.379,166.602 238.171 M183.300 238.133 C 180.077 239.836,180.671 244.587,184.206 245.379 C 188.619 246.368,190.808 240.172,186.780 238.090 C 186.040 237.707,184.060 237.732,183.300 238.133 M219.900 238.115 C 216.257 240.015,217.570 245.457,221.672 245.457 C 225.013 245.457,226.753 241.583,224.542 239.065 C 223.456 237.827,221.299 237.386,219.900 238.115 M236.402 238.171 C 232.870 240.065,234.177 245.416,238.181 245.453 C 241.738 245.485,243.455 241.210,240.868 238.763 C 239.777 237.731,237.728 237.460,236.402 238.171 M253.100 238.115 C 249.866 239.802,250.462 244.585,254.006 245.379 C 257.659 246.198,260.226 241.893,257.759 239.084 C 256.631 237.799,254.541 237.364,253.100 238.115 M269.700 238.115 C 266.484 239.792,267.074 244.625,270.587 245.379 C 271.137 245.496,271.702 245.557,271.843 245.513 C 271.984 245.469,272.346 245.380,272.646 245.314 C 275.295 244.734,276.168 240.718,274.068 238.774 C 272.945 237.735,270.994 237.440,269.700 238.115 M286.300 238.115 C 283.066 239.802,283.662 244.585,287.206 245.379 C 290.859 246.198,293.426 241.893,290.959 239.084 C 289.831 237.799,287.741 237.364,286.300 238.115 M302.900 238.115 C 299.695 239.786,300.286 244.628,303.787 245.379 C 304.337 245.496,304.902 245.557,305.043 245.513 C 305.184 245.469,305.546 245.380,305.846 245.314 C 308.495 244.734,309.368 240.718,307.268 238.774 C 306.145 237.735,304.194 237.440,302.900 238.115 M100.300 254.722 C 97.503 256.251,97.446 260.284,100.200 261.691 C 104.412 263.843,108.028 258.109,104.339 255.127 C 103.397 254.366,101.330 254.159,100.300 254.722 M116.834 254.829 C 114.598 255.936,114.113 259.034,115.873 260.969 C 117.470 262.724,120.707 262.366,121.905 260.302 C 123.934 256.806,120.446 253.041,116.834 254.829 M133.500 254.722 C 130.703 256.251,130.646 260.284,133.400 261.691 C 137.612 263.843,141.228 258.109,137.539 255.127 C 136.597 254.366,134.530 254.159,133.500 254.722 M150.034 254.829 C 147.798 255.936,147.313 259.034,149.073 260.969 C 150.670 262.724,153.907 262.366,155.105 260.302 C 157.134 256.806,153.646 253.041,150.034 254.829 M166.700 254.722 C 163.101 256.690,164.348 262.100,168.398 262.091 C 172.221 262.082,173.747 257.411,170.689 255.078 C 169.756 254.366,167.688 254.182,166.700 254.722 M219.900 254.722 C 216.301 256.690,217.548 262.100,221.598 262.091 C 226.634 262.079,226.867 254.674,221.839 254.453 C 220.884 254.411,220.328 254.488,219.900 254.722 M236.361 254.797 C 233.394 256.408,233.898 261.087,237.136 261.986 C 241.272 263.134,243.885 257.837,240.525 255.117 C 239.537 254.317,237.528 254.163,236.361 254.797 M253.100 254.722 C 249.501 256.690,250.748 262.100,254.798 262.091 C 259.834 262.079,260.067 254.674,255.039 254.453 C 254.084 254.411,253.528 254.488,253.100 254.722 M269.700 254.722 C 265.619 256.954,267.997 263.226,272.455 261.988 C 275.542 261.131,276.281 257.182,273.739 255.127 C 272.797 254.366,270.730 254.159,269.700 254.722 M286.300 254.733 C 282.694 256.639,283.954 262.100,287.998 262.091 C 291.389 262.083,293.170 258.202,290.945 255.668 C 289.852 254.423,287.704 253.991,286.300 254.733 M302.750 254.803 C 299.828 256.388,300.358 261.103,303.556 261.991 C 307.683 263.137,310.294 257.839,306.939 255.127 C 305.932 254.313,303.936 254.159,302.750 254.803 M83.799 278.587 C 82.431 279.003,81.552 279.728,80.873 281.000 C 80.418 281.854,80.182 298.504,80.602 300.200 C 80.931 301.531,81.698 302.513,82.862 303.093 L 83.879 303.600 199.946 303.600 C 304.426 303.600,316.087 303.569,316.756 303.289 C 319.440 302.168,319.500 301.903,319.500 291.100 L 319.500 281.900 319.030 280.945 C 318.512 279.893,317.603 279.097,316.450 278.685 C 315.611 278.386,84.781 278.288,83.799 278.587 M315.400 291.100 L 315.400 299.600 200.000 299.600 L 84.600 299.600 84.600 291.100 L 84.600 282.600 200.000 282.600 L 315.400 282.600 315.400 291.100 " stroke="none" fill="#455943" fill-rule="evenodd"></path><path id="path3" d="M65.400 0.158 C 65.400 0.245,65.664 1.167,65.988 2.208 C 79.605 46.057,48.347 90.933,2.250 93.716 L 0.000 93.851 0.000 101.756 L 0.000 109.661 2.750 109.541 C 57.493 107.133,96.397 53.852,82.185 0.750 L 81.985 0.000 73.692 0.000 C 69.132 0.000,65.400 0.071,65.400 0.158 M290.526 1.150 C 284.897 52.649,318.651 99.673,369.000 110.475 C 378.582 112.531,392.458 113.360,399.250 112.284 L 400.000 112.165 400.000 102.861 L 400.000 93.557 399.550 93.665 C 395.617 94.609,382.895 94.247,375.800 92.989 C 332.849 85.377,303.190 44.860,309.074 1.836 L 309.326 0.000 299.989 -0.000 L 290.652 -0.000 290.526 1.150 M210.487 97.650 L 209.900 98.300 210.550 97.713 C 210.907 97.390,211.200 97.097,211.200 97.063 C 211.200 96.908,211.035 97.044,210.487 97.650 M90.887 114.250 L 90.300 114.900 90.950 114.313 C 91.556 113.765,91.692 113.600,91.537 113.600 C 91.503 113.600,91.210 113.892,90.887 114.250 M210.000 268.863 C 210.000 268.897,210.293 269.190,210.650 269.513 L 211.300 270.100 210.713 269.450 C 210.165 268.844,210.000 268.708,210.000 268.863 M318.087 302.450 L 317.500 303.100 318.150 302.513 C 318.756 301.965,318.892 301.800,318.737 301.800 C 318.703 301.800,318.410 302.093,318.087 302.450 M0.000 316.440 L 0.000 325.542 1.350 325.670 C 2.093 325.740,3.265 325.798,3.956 325.799 C 5.837 325.801,10.715 326.344,14.100 326.928 C 47.424 332.679,74.163 359.092,80.300 392.320 C 80.671 394.327,81.400 399.382,81.400 399.944 C 81.400 399.975,85.544 400.000,90.610 400.000 L 99.820 400.000 99.690 398.750 C 94.390 347.551,54.059 309.177,3.750 307.465 L 0.000 307.337 0.000 316.440 M396.000 344.617 C 364.750 346.436,337.238 364.550,323.237 392.522 C 322.142 394.710,320.000 399.578,320.000 399.879 C 320.000 399.946,323.915 400.000,328.700 400.000 C 333.485 400.000,337.400 399.930,337.400 399.845 C 337.400 399.543,340.082 394.864,341.537 392.627 C 353.790 373.799,375.053 361.489,396.750 360.662 L 400.000 360.539 400.000 352.469 L 400.000 344.400 399.350 344.430 C 398.993 344.446,397.485 344.530,396.000 344.617 " stroke="none" fill="#5684d3" fill-rule="evenodd"></path><path id="path4" d="M-0.000 208.467 L 0.000 307.149 3.050 307.285 C 26.787 308.342,47.322 316.272,65.000 331.208 C 84.613 347.778,97.804 373.263,99.729 398.303 L 99.859 400.000 152.154 400.000 C 193.960 400.000,204.410 399.950,204.255 399.750 C 204.149 399.613,189.146 377.923,170.915 351.550 L 137.768 303.600 110.676 303.600 C 80.459 303.600,82.912 303.712,81.573 302.268 C 80.369 300.970,80.400 301.267,80.400 291.104 C 80.400 280.947,80.398 280.964,81.561 279.725 C 82.866 278.332,81.680 278.409,101.950 278.404 C 111.988 278.402,120.200 278.351,120.200 278.290 C 120.200 278.230,119.018 276.475,117.572 274.390 L 114.945 270.600 103.822 270.596 C 91.624 270.591,91.793 270.606,90.660 269.374 C 89.566 268.185,89.601 268.784,89.594 250.656 L 89.588 233.900 46.705 171.900 L 3.823 109.900 1.911 109.843 L -0.000 109.786 -0.000 208.467 M-0.000 362.869 L 0.000 400.000 40.628 400.000 L 81.255 400.000 81.115 398.450 C 77.591 359.395,43.390 327.516,3.250 325.871 L -0.000 325.737 -0.000 362.869 " stroke="none" fill="#b7d0fc" fill-rule="evenodd"></path></g></svg>